<?xml version="1.0" standalone="no"?>
<!DOCTYPE svg PUBLIC "-//W3C//DTD SVG 20010904//EN"
 "http://www.w3.org/TR/2001/REC-SVG-20010904/DTD/svg10.dtd">
<svg version="1.0" xmlns="http://www.w3.org/2000/svg"
 width="831.000000pt" height="987.000000pt" viewBox="0 0 831.000000 987.000000"
 preserveAspectRatio="xMidYMid meet">

<g transform="translate(0.000000,987.000000) scale(0.100000,-0.100000)"
fill="#000000" stroke="none">
<path d="M4305 9840 c-145 -50 -256 -119 -446 -277 -43 -34 -81 -63 -86 -63
-5 0 -22 14 -39 31 -37 40 -176 145 -225 170 -79 40 -103 17 -114 -108 l-7
-82 -81 54 c-45 30 -90 55 -99 55 -18 0 -25 -19 -30 -76 l-3 -32 -63 38 c-79
48 -183 92 -292 123 -142 41 -153 21 -49 -85 71 -72 189 -219 189 -235 0 -14
-179 -53 -241 -53 -105 0 -240 43 -424 135 -93 46 -201 96 -240 109 -139 48
-277 87 -291 82 -19 -7 -18 -45 3 -68 9 -10 14 -21 10 -24 -3 -3 -46 6 -96 21
-166 49 -291 42 -400 -22 -78 -45 -118 -92 -516 -602 -88 -112 -181 -225 -209
-250 -122 -114 -139 -140 -157 -238 -18 -97 5 -267 57 -421 14 -42 55 -135 90
-205 36 -71 78 -163 94 -206 39 -107 51 -131 66 -131 7 0 37 35 67 78 52 73
195 222 214 222 4 0 17 -44 27 -97 24 -125 68 -266 114 -366 l35 -78 -31 -127
c-64 -261 -101 -584 -102 -895 l0 -107 -75 -81 c-42 -45 -88 -98 -102 -120
-30 -45 -101 -95 -152 -108 -20 -5 -72 -15 -116 -24 -275 -51 -489 -251 -555
-518 -12 -48 -24 -136 -27 -205 -15 -310 98 -606 336 -879 111 -128 732 -667
1154 -1003 313 -249 643 -433 983 -548 76 -25 140 -48 142 -49 1 -1 -4 -58
-13 -126 -19 -159 -20 -535 0 -774 29 -350 49 -537 61 -553 10 -14 36 -18 141
-20 l129 -4 38 -74 c51 -99 129 -170 252 -230 52 -26 99 -54 104 -64 21 -40
13 -48 -62 -60 -333 -53 -554 -186 -658 -394 -37 -73 -41 -166 -10 -233 17
-39 22 -43 55 -43 29 0 35 4 35 21 0 18 5 21 35 17 l35 -4 0 58 c0 51 -2 58
-20 58 -23 0 -24 4 -10 31 10 18 28 19 654 19 l644 0 12 51 c24 99 -2 214 -63
278 -40 42 -136 89 -199 97 -51 7 -74 24 -64 49 4 12 28 15 133 15 222 1 414
36 591 109 l73 30 29 -62 c15 -34 58 -127 94 -206 36 -80 66 -149 66 -154 0
-6 -28 -35 -62 -66 -33 -30 -74 -74 -90 -96 l-29 -40 600 -5 c476 -4 603 -8
613 -18 11 -11 10 -12 -3 -7 -20 8 -35 -10 -18 -21 8 -5 9 -3 4 7 -5 8 -4 11
0 6 12 -10 14 -48 3 -41 -5 3 -7 -6 -4 -20 3 -15 1 -24 -5 -21 -5 4 -7 10 -4
15 3 5 1 11 -5 15 -5 3 -10 1 -10 -6 0 -7 -8 -6 -22 5 -30 21 -67 37 -98 41
-14 2 -19 2 -12 -1 18 -8 14 -25 -5 -22 -12 2 -19 -4 -21 -19 -3 -18 2 -23 17
-23 13 0 21 -6 21 -16 0 -12 -6 -15 -21 -11 -16 4 -19 3 -11 -5 14 -14 42 -3
42 18 0 9 -9 18 -20 21 -11 3 -20 9 -20 14 0 14 17 10 52 -12 18 -12 24 -18
13 -14 -19 6 -18 5 2 -14 23 -22 38 -28 28 -11 -14 22 12 7 45 -25 l34 -35
163 0 163 0 0 68 c-1 109 -49 192 -161 276 -79 60 -167 101 -265 125 -122 29
-115 23 -127 105 -5 28 -4 28 37 23 138 -19 175 -20 201 -3 17 11 25 26 25 45
0 26 8 32 104 79 117 57 143 84 107 113 -12 10 -49 20 -91 24 l-71 7 82 47
c45 25 104 65 130 89 125 112 153 319 49 362 -47 19 -127 8 -302 -44 -186 -55
-278 -69 -370 -56 -36 5 -71 12 -79 14 -8 3 -27 10 -42 16 l-28 10 41 55 c132
179 191 361 192 590 1 171 -21 303 -88 543 -6 22 -5 22 77 22 135 0 268 -35
426 -112 66 -32 83 -44 77 -57 -39 -92 -37 -108 32 -184 55 -62 66 -81 94
-177 45 -148 104 -237 175 -260 48 -16 101 10 128 63 28 55 28 158 -1 216 -12
25 -22 57 -22 73 0 42 33 37 151 -22 55 -28 127 -57 159 -66 56 -14 62 -14
104 5 51 22 76 61 76 118 0 80 -47 120 -222 188 -144 56 -144 57 107 59 159 1
201 12 225 55 16 32 12 86 -10 114 -28 36 -76 47 -200 48 l-105 0 40 19 c22
11 75 35 117 54 57 25 80 42 92 64 29 56 20 104 -25 127 -38 20 -75 19 -226
-6 -97 -16 -155 -20 -237 -16 -129 6 -167 -3 -202 -46 l-26 -33 -36 34 c-49
46 -174 105 -302 143 -128 38 -143 45 -115 55 303 107 562 241 776 400 122 90
322 287 401 394 109 147 195 323 221 451 l12 61 130 57 c72 32 213 93 315 135
225 94 291 126 304 148 8 13 6 30 -8 65 -39 98 -33 159 18 219 31 36 37 39 87
39 32 0 69 -8 91 -19 61 -29 73 -21 76 53 12 259 -146 708 -350 996 -104 147
-267 297 -410 379 -25 15 -49 33 -52 42 -10 25 -40 336 -41 414 0 70 3 82 51
180 84 170 143 354 184 573 12 64 25 117 29 116 3 0 69 -79 145 -175 76 -96
147 -179 158 -185 15 -8 24 -5 46 19 29 31 319 605 359 712 47 123 41 311 -12
428 -20 44 -49 78 -123 147 -265 247 -380 382 -506 592 -140 232 -293 386
-479 479 -162 82 -285 82 -481 -1 -17 -8 -18 -4 -12 48 l7 57 -61 0 c-57 0
-78 -7 -238 -82 -98 -45 -256 -122 -352 -171 -213 -108 -251 -124 -337 -137
-42 -6 -147 -42 -270 -91 l-202 -81 -63 53 c-79 66 -174 111 -345 164 l-135
42 108 58 c60 31 124 69 143 83 31 23 33 26 15 33 -41 16 -81 7 -232 -52 -87
-33 -163 -63 -171 -66 -7 -4 -3 11 12 33 30 48 72 131 81 161 6 18 2 22 -23
28 -24 5 -51 -4 -138 -49 -59 -30 -109 -54 -110 -52 -2 1 21 34 51 72 57 75
80 113 73 121 -19 18 -90 11 -172 -17z m36 -82 c-11 -24 -30 -68 -44 -99 -27
-60 -26 -99 2 -99 10 0 66 33 126 74 61 41 113 72 116 70 4 -2 -15 -47 -43
-100 -51 -100 -55 -120 -26 -137 13 -8 31 -3 78 22 34 17 64 31 65 29 2 -2
-30 -31 -71 -66 -45 -38 -74 -71 -74 -83 0 -28 32 -24 61 7 66 71 119 71 298
0 240 -94 292 -124 330 -187 51 -83 0 -274 -114 -434 -77 -107 -292 -298 -306
-272 -4 7 -17 51 -29 97 -12 47 -25 88 -29 93 -4 4 -28 -25 -54 -65 -54 -86
-142 -186 -231 -266 -74 -65 -217 -156 -260 -166 l-29 -7 6 43 c3 24 31 92 63
151 31 60 53 111 50 114 -3 3 -34 -19 -69 -50 -35 -30 -101 -80 -147 -111
-219 -144 -345 -253 -509 -443 -35 -40 -67 -73 -72 -73 -31 0 22 166 103 324
37 72 66 132 64 134 -16 15 -198 -120 -314 -232 -78 -76 -203 -229 -232 -286
-13 -24 -68 -79 -82 -80 -3 0 -14 23 -24 52 -12 38 -15 69 -11 122 11 139 53
244 190 484 36 61 62 112 59 112 -17 0 -148 -82 -208 -131 -90 -73 -169 -160
-264 -288 -41 -54 -78 -97 -82 -95 -13 8 -9 126 7 220 19 109 29 145 111 403
36 111 63 206 60 209 -3 3 -7 3 -9 1 -2 -2 -16 -22 -32 -44 -33 -44 -84 -118
-148 -212 -39 -58 -63 -80 -75 -69 -2 3 7 42 21 88 96 311 158 518 163 548 l6
35 -73 -71 c-186 -180 -214 -204 -217 -190 -3 16 35 217 49 253 16 44 218 135
417 188 56 16 109 33 117 39 21 15 8 37 -104 180 -50 64 -87 116 -82 116 4 0
88 -39 185 -86 98 -47 180 -84 182 -81 3 3 13 25 22 50 l17 45 58 -35 c97 -59
131 -46 142 56 3 31 9 68 11 84 l6 27 50 -27 c28 -15 95 -70 149 -120 53 -51
105 -93 114 -93 9 0 49 30 89 66 140 130 264 214 401 271 44 18 83 33 87 33 4
0 -1 -19 -11 -42z m2598 -965 c23 -192 52 -349 77 -425 48 -146 167 -315 378
-536 64 -67 116 -126 116 -131 0 -27 -112 -507 -121 -515 -5 -6 -9 -22 -9 -36
0 -43 -17 -50 -114 -50 l-90 0 41 43 c46 48 59 85 39 113 -16 22 -85 22 -212
0 -43 -8 -80 -13 -82 -11 -11 10 69 78 128 109 38 20 72 41 76 47 23 38 -131
103 -280 118 -142 14 -255 -10 -366 -78 -27 -17 -50 -26 -50 -20 0 56 245
1059 290 1187 25 71 145 280 161 282 4 0 12 -44 18 -97z m-5323 -108 c58 -118
104 -275 104 -355 0 -43 -6 -54 -67 -131 -156 -197 -293 -445 -404 -729 -29
-74 -56 -139 -60 -143 -19 -23 -139 378 -139 466 0 35 10 47 148 185 81 81
165 173 186 205 74 114 107 227 126 442 6 66 13 140 16 165 6 42 7 43 21 25 8
-11 39 -69 69 -130z m2997 -2869 c267 -68 488 -258 596 -513 61 -144 97 -352
81 -476 -48 -387 -309 -703 -656 -793 -120 -31 -288 -36 -400 -11 -165 36
-321 121 -435 236 -116 119 -193 254 -236 418 -35 135 -37 335 -5 467 86 347
346 607 682 682 98 22 265 17 373 -10z m-2535 -81 c224 -53 407 -248 487 -521
36 -121 45 -301 20 -429 -44 -234 -171 -430 -348 -538 -94 -57 -153 -72 -287
-72 -103 1 -122 4 -185 29 -267 109 -441 389 -448 717 -2 102 -2 103 25 118
15 9 29 13 33 10 3 -4 10 -68 15 -143 12 -167 21 -208 71 -312 54 -114 146
-211 247 -261 73 -37 80 -38 182 -38 100 0 109 2 175 34 105 52 190 141 248
261 64 133 81 220 75 384 -6 145 -30 239 -91 346 -44 78 -150 181 -227 221
-62 33 -70 34 -175 34 -105 0 -114 -2 -179 -34 -38 -18 -91 -55 -118 -81 -48
-47 -49 -47 -63 -26 -36 56 -39 73 -16 104 62 88 228 184 351 205 56 9 149 6
208 -8z m-283 -319 c98 -41 162 -170 153 -309 -13 -198 -178 -319 -338 -246
-62 28 -88 54 -121 124 -40 82 -38 103 15 165 46 53 66 108 66 178 0 44 12 62
60 92 28 17 44 20 84 15 27 -3 64 -12 81 -19z m461 -558 c60 -65 67 -109 29
-193 -19 -44 -32 -59 -59 -70 -72 -30 -127 -12 -165 56 -62 110 5 239 124 239
33 0 47 -6 71 -32z m-271 -289 c29 -26 35 -38 35 -71 0 -113 -102 -168 -176
-94 -21 21 -34 44 -34 59 0 14 -2 32 -5 40 -4 8 11 31 35 55 51 54 92 57 145
11z m-980 -99 l32 0 6 -112 c4 -61 5 -113 3 -115 -1 -2 -54 52 -117 119 l-114
121 79 -6 c43 -4 93 -7 111 -7z m738 -320 c76 -29 127 -87 127 -147 0 -101
-188 -193 -393 -193 -70 0 -191 47 -229 90 -64 70 -14 173 108 225 24 11 95
22 184 30 80 7 146 13 147 14 1 0 26 -8 56 -19z m3601 -64 c114 -55 146 -92
146 -170 0 -37 -6 -52 -32 -81 -94 -108 -375 -172 -573 -130 -90 19 -210 76
-246 118 -29 32 -32 40 -43 104 l-5 33 72 21 c87 26 186 75 270 133 l63 43
139 -18 c115 -15 150 -24 209 -53z m-3137 22 c109 -75 -21 -198 -152 -144 -40
17 -55 42 -55 91 0 33 4 38 43 55 58 27 122 26 164 -2z m586 -1359 c40 -20
177 -121 296 -217 53 -43 54 -46 55 -96 1 -36 8 -60 24 -83 12 -17 22 -43 22
-57 0 -14 -23 -112 -51 -218 -60 -225 -62 -218 58 -218 93 0 247 -17 338 -37
175 -38 178 -38 169 30 -4 27 -1 48 8 59 7 9 65 39 128 65 74 31 116 54 118
65 2 9 -25 76 -59 148 l-63 132 27 48 c34 60 34 76 1 123 -14 21 -24 40 -22
41 56 46 195 127 225 131 21 3 205 21 408 40 204 19 389 38 412 41 42 5 42 5
52 -34 28 -104 91 -146 255 -173 73 -12 114 -23 122 -34 17 -23 71 -225 90
-339 23 -135 15 -369 -15 -474 -29 -100 -64 -166 -103 -195 -63 -45 -588 -203
-871 -261 -172 -36 -422 -72 -602 -87 -152 -12 -914 -6 -1050 9 l-60 7 -17
160 c-16 153 -42 516 -52 732 -6 123 8 327 29 442 15 81 73 271 82 271 2 0 23
-10 46 -21z m333 -80 c30 -18 70 -50 90 -70 l36 -37 -30 -16 c-17 -9 -35 -16
-40 -16 -8 0 -200 146 -227 173 -7 6 11 8 53 4 48 -4 77 -13 118 -38z m452
-10 c45 -1 85 -5 87 -9 6 -10 -66 -59 -112 -76 -62 -22 -160 -18 -218 10 -49
22 -115 71 -115 84 0 4 62 4 137 0 76 -3 175 -7 221 -9z m352 -3 c0 -2 -29
-23 -65 -46 -66 -43 -122 -58 -172 -45 l-28 7 39 34 c22 19 54 38 70 43 31 9
156 15 156 7z m-177 -157 c67 -12 79 -24 75 -72 -5 -69 -26 -77 -218 -84 -91
-3 -210 -2 -264 2 -91 6 -102 10 -128 35 -34 35 -35 60 -4 97 24 27 27 28 158
34 151 7 308 2 381 -12z m-345 -214 c1 -1 -8 -87 -20 -191 l-23 -189 -105 3
c-58 2 -106 5 -108 7 -2 2 77 312 93 366 5 13 18 15 83 11 42 -2 78 -6 80 -7z
m436 -102 c31 -64 53 -120 49 -124 -5 -4 -61 -29 -126 -57 -78 -34 -119 -47
-122 -39 -10 35 -58 307 -54 311 2 2 47 9 99 14 52 5 96 10 97 11 0 0 26 -52
57 -116z m-314 95 c0 -2 16 -84 35 -183 31 -158 38 -183 60 -200 21 -18 34
-45 21 -45 -3 0 -44 9 -93 20 -48 11 -99 23 -111 26 -25 5 -25 4 -7 134 2 14
9 76 16 138 l12 112 34 0 c18 0 33 -1 33 -2z m2519 -974 c22 -16 23 -22 19
-83 -6 -79 -33 -137 -83 -179 -20 -16 -98 -61 -174 -101 -76 -39 -144 -77
-150 -84 -17 -22 23 -36 139 -51 l105 -13 -57 -27 c-45 -21 -72 -27 -127 -27
-93 0 -108 -16 -61 -64 l34 -35 -45 -1 c-74 -2 -102 2 -154 22 -46 18 -51 18
-62 3 -11 -15 -9 -112 3 -151 2 -10 -22 -13 -99 -13 -97 0 -106 2 -150 30 -44
28 -67 61 -67 95 0 10 17 15 64 17 l64 3 -23 57 c-13 32 -20 60 -15 63 5 3 24
-4 42 -15 40 -24 79 -25 139 -5 42 15 96 51 88 59 -2 2 -52 27 -111 54 -63 30
-108 57 -108 65 0 10 31 22 97 37 70 17 112 34 154 62 66 44 141 124 170 179
18 36 25 40 126 72 165 53 203 58 242 31z m-1756 -173 c-9 -36 -59 -80 -124
-111 -211 -98 -448 -92 -586 17 l-58 45 100 -8 c182 -15 341 -10 435 15 47 13
99 29 115 36 46 20 57 23 92 24 26 1 30 -2 26 -18z m-1615 -956 c-6 -13 -14
-22 -19 -20 -4 3 -10 -5 -12 -17 -2 -13 -5 -4 -6 20 -1 38 1 42 24 42 23 0 24
-2 13 -25z m72 -55 c0 -11 -7 -20 -16 -20 -8 0 -12 5 -8 11 3 6 0 15 -7 20
-10 6 -8 9 9 9 15 0 22 -6 22 -20z m-9 -30 c5 0 9 -9 9 -20 0 -24 -19 -26 -46
-4 -18 15 -18 15 0 10 17 -6 17 -5 5 11 -12 15 -12 16 4 10 10 -4 23 -7 28 -7z"/>
<path d="M4182 5589 c-198 -35 -400 -187 -491 -369 -56 -111 -75 -206 -68
-339 8 -183 65 -309 203 -448 68 -68 97 -89 175 -126 145 -69 258 -88 401 -67
225 32 412 168 513 372 98 200 101 412 6 603 -88 177 -250 310 -436 360 -74
20 -231 27 -303 14z m2 -153 c126 -38 216 -166 218 -311 1 -71 -14 -125 -53
-181 -105 -154 -287 -181 -452 -67 -151 104 -163 344 -25 480 85 82 202 112
312 79z m628 -608 c59 -42 77 -147 36 -219 -41 -73 -159 -99 -238 -52 -34 20
-74 127 -64 171 18 74 55 108 139 127 54 13 79 8 127 -27z m-370 -293 c46 -31
59 -85 32 -140 -52 -110 -224 -70 -224 52 0 35 23 69 64 94 42 26 84 24 128
-6z"/>
<path d="M4670 1794 c-118 -35 -304 -89 -412 -120 -108 -31 -201 -60 -208 -64
-13 -8 32 -266 46 -264 21 4 840 237 850 243 7 4 1 47 -20 139 -16 72 -33 131
-36 131 -3 -1 -102 -30 -220 -65z"/>
<path d="M5679 156 c10 -11 8 -17 -6 -25 -17 -10 -17 -10 0 -11 9 0 17 5 17
11 0 5 6 7 13 3 6 -4 3 2 -7 14 -21 24 -36 31 -17 8z"/>
<path d="M2784 128 l-19 -23 23 19 c12 11 22 21 22 23 0 8 -8 2 -26 -19z"/>
<path d="M2833 133 c9 -2 23 -2 30 0 6 3 -1 5 -18 5 -16 0 -22 -2 -12 -5z"/>
<path d="M2918 133 c32 -6 28 -33 -5 -34 l-28 -1 30 -7 c17 -4 44 -4 60 -1
l30 5 -27 3 c-34 4 -37 29 -5 35 12 2 0 4 -28 4 -27 0 -40 -2 -27 -4z"/>
<path d="M3027 133 c19 -4 23 -12 26 -56 l3 -52 2 52 c2 50 3 52 35 56 17 2 5
4 -28 4 -33 0 -50 -2 -38 -4z"/>
<path d="M3495 90 c0 -24 5 -40 12 -40 6 0 9 9 6 20 -3 11 0 20 6 20 6 0 11
-9 11 -20 0 -11 4 -20 9 -20 14 0 0 41 -15 47 -8 3 -14 11 -14 19 0 8 -3 14
-7 14 -5 0 -8 -18 -8 -40z"/>
<path d="M3795 90 c0 -24 5 -40 12 -40 6 0 9 9 6 20 -3 11 0 20 6 20 6 0 11
-9 11 -20 0 -11 4 -20 9 -20 14 0 0 41 -15 47 -8 3 -14 11 -14 19 0 8 -3 14
-7 14 -5 0 -8 -18 -8 -40z"/>
<path d="M4335 90 c0 -22 5 -40 10 -40 6 0 9 14 9 30 -2 45 -3 50 -11 50 -5 0
-8 -18 -8 -40z"/>
<path d="M4365 95 c2 -50 12 -53 17 -6 2 25 -1 41 -7 41 -6 0 -10 -16 -10 -35z"/>
<path d="M4515 119 c-4 -6 -4 -13 -1 -16 3 -4 6 -1 6 5 0 7 7 12 15 12 21 0
19 -13 -5 -35 -27 -25 -25 -35 8 -34 24 2 25 2 4 6 l-24 5 22 23 c22 24 20 45
-5 45 -8 0 -17 -5 -20 -11z"/>
<path d="M4574 116 c-11 -28 0 -61 21 -61 16 0 20 7 20 35 0 25 -5 36 -18 38
-9 2 -20 -3 -23 -12z m36 -26 c0 -20 -5 -30 -15 -30 -10 0 -15 10 -15 30 0 20
5 30 15 30 10 0 15 -10 15 -30z"/>
<path d="M4649 128 c-6 -21 -1 -78 6 -78 6 0 9 17 7 40 -3 33 -9 50 -13 38z"/>
<path d="M4690 110 c0 -13 7 -20 20 -20 12 0 20 -7 20 -16 0 -12 -6 -15 -21
-11 -16 4 -19 3 -11 -5 14 -14 42 -3 42 18 0 9 -9 18 -20 21 -27 7 -25 21 3
26 19 4 18 4 -5 6 -22 1 -28 -4 -28 -19z"/>
<path d="M4754 116 c-11 -28 0 -61 21 -61 16 0 20 7 20 35 0 25 -5 36 -18 38
-9 2 -20 -3 -23 -12z m36 -26 c0 -20 -5 -30 -15 -30 -10 0 -15 10 -15 30 0 20
5 30 15 30 10 0 15 -10 15 -30z"/>
<path d="M4817 123 c-2 -4 -4 -21 -3 -38 1 -23 6 -30 21 -30 16 0 20 7 20 35
0 24 -5 36 -17 38 -9 2 -18 -1 -21 -5z m33 -13 c0 -5 -7 -10 -15 -10 -8 0 -15
5 -15 10 0 6 7 10 15 10 8 0 15 -4 15 -10z m0 -35 c0 -8 -7 -15 -15 -15 -8 0
-15 7 -15 15 0 8 7 15 15 15 8 0 15 -7 15 -15z"/>
<path d="M4889 128 c-6 -21 -1 -78 6 -78 6 0 9 17 7 40 -3 33 -9 50 -13 38z"/>
<path d="M4946 109 c-14 -21 -14 -24 4 -41 27 -25 28 -23 23 20 -6 47 -8 48
-27 21z m14 -14 c0 -8 -4 -15 -10 -15 -5 0 -7 7 -4 15 4 8 8 15 10 15 2 0 4
-7 4 -15z"/>
<path d="M4994 116 c-11 -28 0 -61 21 -61 16 0 20 7 20 35 0 25 -5 36 -18 38
-9 2 -20 -3 -23 -12z m36 -26 c0 -20 -5 -30 -15 -30 -10 0 -15 10 -15 30 0 20
5 30 15 30 10 0 15 -10 15 -30z"/>
<path d="M5069 128 c-6 -21 -1 -78 6 -78 6 0 9 17 7 40 -3 33 -9 50 -13 38z"/>
<path d="M5117 123 c-2 -4 -4 -21 -3 -38 1 -23 6 -30 21 -30 16 0 20 7 20 35
0 24 -5 36 -17 38 -9 2 -18 -1 -21 -5z m33 -13 c0 -5 -7 -10 -15 -10 -8 0 -15
5 -15 10 0 6 7 10 15 10 8 0 15 -4 15 -10z m0 -35 c0 -8 -7 -15 -15 -15 -8 0
-15 7 -15 15 0 8 7 15 15 15 8 0 15 -7 15 -15z"/>
<path d="M5176 121 c-3 -5 3 -7 14 -4 22 6 28 -12 8 -20 -10 -4 -10 -6 0 -6 6
-1 12 -8 12 -17 0 -12 -6 -15 -21 -11 -16 4 -19 3 -11 -5 20 -20 42 -1 39 34
-2 32 -28 51 -41 29z"/>
<path d="M5234 116 c-11 -28 0 -61 21 -61 28 0 33 35 6 42 -12 3 -21 10 -21
15 0 6 7 8 15 4 8 -3 15 -1 15 4 0 15 -30 12 -36 -4z m36 -41 c0 -8 -7 -15
-15 -15 -8 0 -15 7 -15 15 0 8 7 15 15 15 8 0 15 -7 15 -15z"/>
<path d="M5294 116 c-11 -28 0 -61 21 -61 16 0 20 7 20 35 0 25 -5 36 -18 38
-9 2 -20 -3 -23 -12z m36 -26 c0 -20 -5 -30 -15 -30 -10 0 -15 10 -15 30 0 20
5 30 15 30 10 0 15 -10 15 -30z"/>
<path d="M5357 123 c-2 -4 -4 -21 -3 -38 1 -23 6 -30 21 -30 16 0 20 7 20 35
0 24 -5 36 -17 38 -9 2 -18 -1 -21 -5z m33 -13 c0 -5 -7 -10 -15 -10 -8 0 -15
5 -15 10 0 6 7 10 15 10 8 0 15 -4 15 -10z m0 -35 c0 -8 -7 -15 -15 -15 -8 0
-15 7 -15 15 0 8 7 15 15 15 8 0 15 -7 15 -15z"/>
<path d="M5410 110 c0 -13 7 -20 20 -20 12 0 20 -7 20 -16 0 -12 -6 -15 -21
-11 -16 4 -19 3 -11 -5 14 -14 42 -3 42 18 0 9 -9 18 -20 21 -27 7 -25 21 3
26 19 4 18 4 -5 6 -22 1 -28 -4 -28 -19z"/>
<path d="M5486 109 c-14 -21 -14 -24 4 -41 27 -25 28 -23 23 20 -6 47 -8 48
-27 21z m14 -14 c0 -8 -4 -15 -10 -15 -5 0 -7 7 -4 15 4 8 8 15 10 15 2 0 4
-7 4 -15z"/>
<path d="M2782 96 c-9 -11 -12 -16 -5 -13 8 5 13 -4 16 -25 3 -30 4 -29 5 8 2
38 4 41 27 36 20 -3 25 -10 25 -32 0 -16 -6 -31 -12 -33 -8 -3 -6 -6 5 -6 13
-1 17 7 17 33 0 19 6 36 13 39 6 2 -7 6 -31 8 -34 4 -47 0 -60 -15z"/>
<path d="M3628 108 c-8 -19 9 -58 24 -58 10 0 9 3 -1 9 -8 5 -11 15 -8 23 3 8
2 20 -3 27 -6 10 -8 10 -12 -1z"/>
<path d="M3928 108 c-8 -19 9 -58 24 -58 10 0 9 3 -1 9 -8 5 -11 15 -8 23 3 8
2 20 -3 27 -6 10 -8 10 -12 -1z"/>
<path d="M3086 88 c10 -14 21 -24 23 -22 3 3 -6 15 -18 27 l-24 22 19 -27z"/>
<path d="M3194 87 c3 -10 6 -24 6 -30 0 -7 4 -6 10 3 9 13 10 13 10 0 1 -8 6
-4 11 9 5 13 7 26 4 29 -3 3 -5 -1 -5 -9 0 -11 -2 -11 -10 1 -9 13 -10 13 -10
0 0 -13 -2 -13 -11 0 -9 12 -10 12 -5 -3z"/>
<path d="M3254 87 c3 -10 6 -24 6 -30 0 -7 4 -6 10 3 9 13 10 13 10 0 1 -8 6
-4 11 9 5 13 7 26 4 29 -3 3 -5 -1 -5 -9 0 -11 -2 -11 -10 1 -9 13 -10 13 -10
0 0 -13 -2 -13 -11 0 -9 12 -10 12 -5 -3z"/>
<path d="M3314 87 c3 -10 6 -24 6 -30 0 -7 4 -6 10 3 9 13 10 13 10 0 1 -8 6
-4 11 9 5 13 7 26 4 29 -3 3 -5 -1 -5 -9 0 -11 -2 -11 -10 1 -9 13 -10 13 -10
0 0 -13 -2 -13 -11 0 -9 12 -10 12 -5 -3z"/>
<path d="M3435 65 c0 -24 5 -35 14 -35 8 0 11 3 8 7 -4 3 1 11 10 18 20 15 11
45 -14 45 -14 0 -18 -8 -18 -35z m35 10 c0 -8 -4 -15 -10 -15 -5 0 -10 7 -10
15 0 8 5 15 10 15 6 0 10 -7 10 -15z"/>
<path d="M3563 84 c-8 -21 13 -42 28 -27 13 13 5 43 -11 43 -6 0 -13 -7 -17
-16z m27 -9 c0 -8 -4 -15 -10 -15 -5 0 -10 7 -10 15 0 8 5 15 10 15 6 0 10 -7
10 -15z"/>
<path d="M3683 84 c-8 -21 13 -42 28 -27 13 13 5 43 -11 43 -6 0 -13 -7 -17
-16z m27 -9 c0 -8 -4 -15 -10 -15 -5 0 -10 7 -10 15 0 8 5 15 10 15 6 0 10 -7
10 -15z"/>
<path d="M3735 65 c0 -24 5 -35 14 -35 8 0 11 3 8 7 -4 3 1 11 10 18 20 15 11
45 -14 45 -14 0 -18 -8 -18 -35z m35 10 c0 -8 -4 -15 -10 -15 -5 0 -10 7 -10
15 0 8 5 15 10 15 6 0 10 -7 10 -15z"/>
<path d="M3863 84 c-8 -21 13 -42 28 -27 13 13 5 43 -11 43 -6 0 -13 -7 -17
-16z m27 -9 c0 -8 -4 -15 -10 -15 -5 0 -10 7 -10 15 0 8 5 15 10 15 6 0 10 -7
10 -15z"/>
<path d="M3983 84 c-8 -21 13 -42 28 -27 13 13 5 43 -11 43 -6 0 -13 -7 -17
-16z m27 -9 c0 -8 -4 -15 -10 -15 -5 0 -10 7 -10 15 0 8 5 15 10 15 6 0 10 -7
10 -15z"/>
<path d="M4104 85 c-8 -19 4 -35 24 -34 15 1 15 2 0 6 -10 2 -18 11 -18 20 0
9 6 13 15 9 8 -3 15 -1 15 4 0 16 -30 12 -36 -5z"/>
<path d="M4155 75 c0 -14 5 -25 12 -25 6 0 9 9 6 20 -3 11 0 20 6 20 6 0 11
-9 11 -20 0 -11 4 -20 10 -20 18 0 -7 45 -26 48 -14 2 -19 -3 -19 -23z"/>
<path d="M4403 84 c-8 -21 13 -42 28 -27 13 13 5 43 -11 43 -6 0 -13 -7 -17
-16z m27 -9 c0 -8 -4 -15 -10 -15 -5 0 -10 7 -10 15 0 8 5 15 10 15 6 0 10 -7
10 -15z"/>
<path d="M2913 53 c-12 -13 -19 -23 -14 -23 10 0 46 39 40 43 -2 2 -14 -7 -26
-20z"/>
<path d="M2950 71 c0 -10 39 -46 43 -40 2 2 -7 14 -20 26 -13 12 -23 19 -23
14z"/>
</g>
</svg>
